P3
# Created by GIMP version 2.10.38 PNM plug-in
17 7
255
255 255 255 255 255 255 255 255 255 255 255 255 255 255 255 255 255 255 255 255 255 255 255 255 255 255 255 255 255 255 255 255 255 255 255 255 255 255 255 255 255 255 255 255 255 255 255 255 255 255 255
255 255 255 053 053 053 053 053 053 053 053 053 255 255 255 053 053 053 053 053 053 053 053 053 255 255 255 053 053 053 255 255 255 053 053 053 255 255 255 053 053 053 053 053 053 053 053 053 255 255 255
255 255 255 053 053 053 255 255 255 255 255 255 255 255 255 053 053 053 255 255 255 255 255 255 255 255 255 053 053 053 255 255 255 053 053 053 255 255 255 053 053 053 255 255 255 053 053 053 255 255 255
255 255 255 053 053 053 255 255 255 255 255 255 255 255 255 053 053 053 053 053 053 053 053 053 255 255 255 053 053 053 255 255 255 053 053 053 255 255 255 053 053 053 053 053 053 053 053 053 255 255 255
255 255 255 053 053 053 255 255 255 255 255 255 255 255 255 255 255 255 255 255 255 053 053 053 255 255 255 053 053 053 255 255 255 053 053 053 255 255 255 053 053 053 255 255 255 053 053 053 255 255 255
255 255 255 053 053 053 053 053 053 053 053 053 255 255 255 053 053 053 053 053 053 053 053 053 255 255 255 053 053 053 053 053 053 053 053 053 255 255 255 053 053 053 053 053 053 053 053 053 255 255 255
255 255 255 255 255 255 255 255 255 255 255 255 255 255 255 255 255 255 255 255 255 255 255 255 255 255 255 255 255 255 255 255 255 255 255 255 255 255 255 255 255 255 255 255 255 255 255 255 255 255 255
